<?xml version="1.0" encoding="UTF-8"?>
<!DOCTYPE svg PUBLIC "-//W3C//DTD SVG 1.1//EN" "http://www.w3.org/Graphics/SVG/1.1/DTD/svg11.dtd">
<!-- Creator: CorelDRAW 2021 (64-Bit) -->
<svg xmlns="http://www.w3.org/2000/svg" xml:space="preserve" width="210mm" height="148mm" version="1.1" style="shape-rendering:geometricPrecision; text-rendering:geometricPrecision; image-rendering:optimizeQuality; fill-rule:evenodd; clip-rule:evenodd"
viewBox="0 0 21000 14800"
 xmlns:xlink="http://www.w3.org/1999/xlink"
 xmlns:xodm="http://www.corel.com/coreldraw/odm/2003">
 <defs>
  <style type="text/css">
   <![CDATA[
    .fil2 {fill:#FFC000}
    .fil0 {fill:#004697;fill-rule:nonzero}
    .fil1 {fill:#00B600;fill-rule:nonzero}
   ]]>
  </style>
 </defs>
 <g id="Слой_x0020_1">
  <metadata id="CorelCorpID_0Corel-Layer"/>
  <g id="_2645876856704">
   <path class="fil0" d="M7453.9 7853.38c189.72,0 344.46,-46.69 458.3,-143.01 116.74,-96.33 175.14,-218.93 175.14,-367.8 0,-175.15 -90.5,-309.44 -268.57,-402.83 -43.79,-23.38 -172.22,-75.92 -382.39,-154.74 -93.4,-32.1 -140.11,-78.81 -140.11,-145.94 0,-72.99 72.98,-134.29 180.97,-134.29 131.35,0 253.95,52.55 364.9,157.63l204.31 -265.61c-145.94,-151.8 -332.77,-227.72 -557.53,-227.72 -178.07,0 -324.01,43.79 -432.03,134.29 -107.98,90.5 -163.45,204.34 -163.45,344.46 0,186.83 90.5,324.01 274.4,411.59 35.03,17.51 102.16,46.71 204.31,84.64 102.19,37.96 163.49,61.3 189.76,72.98 75.89,35.03 113.85,81.75 113.85,137.19 0,90.5 -93.51,158.77 -218.93,154.73 -415.56,-13.31 -442.1,-291.57 -659.72,37.93 160.56,204.34 379.49,306.5 656.79,306.5z"/>
   <path class="fil0" d="M9576.03 6411.38c-140.12,-154.74 -309.4,-230.62 -507.92,-230.62 -224.76,0 -414.48,78.81 -563.35,236.44 -148.88,154.73 -224.79,353.22 -224.79,592.59 0,239.34 72.98,440.76 221.86,601.32 148.87,160.56 338.59,239.37 566.28,239.37 201.42,0 370.73,-72.99 507.92,-221.86l0 183.9 391.17 0 0 -1590.91 -391.17 0 0 189.77zm5.86 604.24c0,128.43 -43.79,236.44 -128.46,326.95 -84.65,90.46 -189.73,134.25 -318.16,134.25 -128.46,0 -233.55,-43.79 -318.19,-134.25 -84.64,-90.51 -125.53,-198.52 -125.53,-326.95 0,-125.53 40.89,-233.51 122.6,-324.02 84.68,-90.5 189.76,-134.28 321.12,-134.28 128.43,0 233.51,43.78 318.16,134.28 84.67,90.51 128.46,198.49 128.46,324.02l0 0z"/>
   <polygon class="fil0" points="10715.04,5594.03 10303.46,5594.03 10303.46,7812.52 10715.04,7812.52 "/>
   <path class="fil0" d="M12228.21 6411.38c-140.12,-154.74 -309.4,-230.62 -507.92,-230.62 -224.76,0 -414.48,78.81 -563.35,236.44 -148.88,154.73 -224.79,353.22 -224.79,592.59 0,239.34 72.98,440.76 221.86,601.32 148.87,160.56 338.59,239.37 566.28,239.37 201.42,0 370.73,-72.99 507.92,-221.86l0 183.9 391.17 0 0 -1590.91 -391.17 0 0 189.77zm5.86 604.24c0,128.43 -43.79,236.44 -128.46,326.95 -84.65,90.46 -189.73,134.25 -318.16,134.25 -128.46,0 -233.55,-43.79 -318.19,-134.25 -84.64,-90.51 -125.53,-198.52 -125.53,-326.95 0,-125.53 40.89,-233.51 122.6,-324.02 84.68,-90.5 189.76,-134.28 321.12,-134.28 128.43,0 233.51,43.78 318.16,134.28 84.67,90.51 128.46,198.49 128.46,324.02l0 0z"/>
   <path class="fil1" d="M6673.98 6184.52c11.25,-363.95 -325.33,-595.61 -590.45,-590.45 -320.14,6.18 -599.24,259.11 -590.45,590.45 14.56,548.73 614.72,928.7 1300.92,928.7 -271.16,-426.78 -122.89,-584.98 -120.02,-928.7z"/>
   <path class="fil0" d="M8326.68 8368.95c-120.67,0 -230.93,53.64 -290.5,143.04 -43.2,-93.88 -137.05,-143.04 -238.38,-143.04 -105.77,-1.49 -201.1,53.64 -247.3,138.56l0 -116.19 -205.59 0 0 811.9 210.07 0 0 -443.96c0,-120.67 74.51,-196.62 177.28,-196.62 99.81,0 163.87,70.02 163.87,190.69l0 449.89 210.07 0 0 -445.44c0,-119.19 72.99,-195.14 178.76,-195.14 96.85,0 162.39,65.54 162.39,189.17l0 451.41 210.04 0 0 -490.12c0,-108.74 -31.28,-192.18 -93.85,-253.27 -61.06,-61.06 -140.05,-90.88 -236.86,-90.88z"/>
   <path class="fil0" d="M9460.46 8488.13c-71.51,-78.95 -157.94,-117.67 -259.23,-117.67 -114.71,0 -211.55,40.2 -287.51,120.67 -75.99,78.96 -114.74,180.25 -114.74,302.4 0,122.15 37.27,224.96 113.23,306.92 75.98,81.91 172.83,122.15 289.02,122.15 102.81,0 189.21,-37.27 259.23,-113.23l0 93.85 199.62 0 0 -811.9 -199.62 0 0 96.81zm2.96 308.4c0,65.54 -22.34,120.67 -65.54,166.83 -43.2,46.2 -96.84,68.55 -162.38,68.55 -65.54,0 -119.19,-22.35 -162.39,-68.55 -43.2,-46.16 -64.06,-101.29 -64.06,-166.83 0,-64.06 20.86,-119.19 62.58,-165.39 43.2,-46.16 96.81,-68.5 163.87,-68.5 65.54,0 119.18,22.34 162.38,68.5 43.2,46.2 65.54,101.33 65.54,165.39l0 0z"/>
   <path class="fil0" d="M10063.88 9203.22l0 -385.83c0,-168.35 78.95,-256.44 198.14,-256.44 29.78,0 67.23,-6.34 104.08,-1.72l-0.41 -189.32c-36,-5.48 -54.51,-0.96 -87.3,-0.96 -99.81,0 -174.28,43.2 -223.44,131.11l0 -108.74 -201.14 0 0 811.9 210.07 0z"/>
   <polygon class="fil0" points="11296.05,9203.22 10913.18,8723.51 11275.19,8391.32 11010.03,8391.32 10715.04,8668.41 10715.04,8071 10504.98,8071 10504.98,9203.22 10715.04,9203.22 10715.04,8905.27 10770.17,8856.11 11038.33,9203.22 "/>
   <path class="fil0" d="M12159.04 8778.64c0,-126.64 -38.75,-224.97 -114.73,-297.95 -75.96,-72.99 -174.29,-110.23 -291.99,-110.23 -125.12,0 -226.45,40.2 -305.4,120.67 -78.95,80.44 -117.67,181.73 -117.67,305.4 0,117.67 37.27,219 113.22,300.92 167.91,181.14 543.95,143.49 665.17,-20.41 -95.26,-186.28 -169.39,-36.86 -328.5,-33.21 -128.05,2.93 -207.07,-58.12 -236.85,-172.83l609.27 0c4.49,-32.75 7.48,-64.06 7.48,-92.36zm-406.72 -233.9c107.26,0 183.24,64.06 202.62,169.84l-412.65 0c25.3,-105.78 104.25,-169.84 210.03,-169.84z"/>
   <path class="fil0" d="M12853.17 9014.36c-64.51,11.41 -78.85,17.55 -119.08,17.55 -75.96,0 -114.71,-47.69 -114.71,-143.02l0 -321.8 268.16 0 0 -175.77 -268.16 0 0 -289.02 -208.55 0 0 289.02 -134.08 0 0 175.77 132.56 0 0 335.22c0,196.41 84.61,307.05 247.96,318.91 87.44,6.34 136.6,-8.21 218.07,-39.44l-22.17 -167.42z"/>
   <path class="fil0" d="M14207.01 6488.33c-189.34,-391.35 -797.21,-435.07 -1101.95,-132.43 -121.53,120.74 -183.9,283.16 -183.9,496.26l0 960.36 411.59 0 0 -884.47c0,-242.27 128.42,-370.73 318.15,-370.73 207.28,0 350.29,148.87 350.29,382.42l0 872.78 205.82 0 205.83 0 0 -872.78c0,-233.55 143.01,-382.42 350.29,-382.42 189.73,0 318.15,128.46 318.15,370.73l0 884.47 411.59 0 0 -960.36c0,-213.1 -62.37,-375.52 -183.9,-496.26 -305.12,-303.02 -917.57,-246.82 -1101.96,132.43z"/>
   <path class="fil2" d="M14207.02 8323.9l-844.96 0.06c0,466.63 378.33,844.9 844.96,844.9 466.68,0 844.96,-378.27 844.96,-844.96l-844.96 0z"/>
  </g>
 </g>
</svg>
